<svg width="30" height="30" viewBox="0 0 30 30" fill="none" xmlns="http://www.w3.org/2000/svg">
<path d="M14.0625 28.126H1.87502V1.87593H14.0625C14.58 1.87593 14.9999 1.4559 14.9999 0.938455C14.9999 0.42101 14.5799 0.000976562 14.0625 0.000976562H0.937472C0.420031 0.000976562 0 0.420932 0 0.938455V29.0635C0 29.581 0.420031 30.001 0.937472 30.001H14.0624C14.5799 30.001 14.9999 29.5809 14.9999 29.0635C14.9999 28.546 14.5799 28.126 14.0625 28.126Z" fill="black"/>
<path d="M29.7281 14.3465L23.2594 7.78495C22.8928 7.41464 22.2994 7.41557 21.9337 7.78495C21.5672 8.15433 21.5672 8.75431 21.9337 9.12369L26.8087 14.069H7.5029C6.98538 14.069 6.56543 14.4928 6.56543 15.0159C6.56543 15.5391 6.98546 15.9628 7.5029 15.9628H26.8087L21.9337 20.9082C21.5672 21.2785 21.5672 21.8775 21.9337 22.2469C22.3003 22.6172 22.8937 22.6172 23.2594 22.2469L29.7271 15.6853C30.089 15.3206 30.0928 14.7103 29.7281 14.3465Z" fill="black"/>
</svg>
