<svg width="41" height="41" viewBox="0 0 41 41" fill="none" xmlns="http://www.w3.org/2000/svg">
<path fill-rule="evenodd" clip-rule="evenodd" d="M3.20937 9.16025C0.525616 13.8192 1.81895 20.235 6.09811 23.4903L7.91519 24.8727L7.90084 24.8976L23.3971 36.6862L34.2202 17.8974C36.9039 13.2384 35.6106 6.82262 31.3315 3.56729C27.0523 0.311955 21.4077 1.44981 18.724 6.10877L17.6339 8.00109L15.8168 6.61876C11.5377 3.36343 5.89313 4.5013 3.20937 9.16025Z" fill="#B52A2A"/>
<path d="M6.95515 23.6993L11.9703 22.6883C12.3647 22.6088 12.673 22.3007 12.7528 21.9063L13.5084 18.1715C13.6883 17.2822 14.8643 17.0729 15.34 17.8455L19.8037 25.0948C20.2916 25.8871 21.5022 25.6421 21.6436 24.7224L22.4648 19.3805C22.6065 18.4587 23.8213 18.2155 24.3069 19.0117L24.5884 19.4732C24.8073 19.8322 25.2275 20.0159 25.6397 19.9328L33.6188 18.3243" stroke="white" stroke-linecap="round"/>
</svg>
